<svg width="28" height="28" viewBox="0 0 28 28" fill="none" xmlns="http://www.w3.org/2000/svg">
<path d="M1.00774 1.37119L1.17613 1.17613C1.79356 0.558698 2.75973 0.502568 3.44057 1.00774L3.63563 1.17613L14.0001 11.5398L24.3645 1.17613C25.0437 0.496955 26.1449 0.496955 26.824 1.17613C27.5032 1.8553 27.5032 2.95646 26.824 3.63563L16.4604 14.0001L26.824 24.3645C27.4415 24.982 27.4976 25.9481 26.9924 26.629L26.824 26.824C26.2066 27.4415 25.2404 27.4976 24.5596 26.9924L24.3645 26.824L14.0001 16.4604L3.63563 26.824C2.95646 27.5032 1.8553 27.5032 1.17613 26.824C0.496955 26.1449 0.496955 25.0437 1.17613 24.3645L11.5398 14.0001L1.17613 3.63563C0.558698 3.0182 0.502568 2.05202 1.00774 1.37119L1.17613 1.17613L1.00774 1.37119Z" fill="#262626"/>
</svg>
