<svg width="19" height="22" viewBox="0 0 19 22" fill="none" xmlns="http://www.w3.org/2000/svg">
<path d="M16.1054 2.72549C14.3362 0.980387 11.9365 -1.83876e-08 9.43435 0C6.9322 1.83876e-08 4.53254 0.980387 2.76326 2.72549C0.993973 4.47059 1.86424e-08 6.83745 0 9.30539C-1.86424e-08 11.7733 0.993973 14.1402 2.76326 15.8853L8.6227 21.6756C8.72606 21.7784 8.84903 21.86 8.98452 21.9157C9.12001 21.9713 9.26533 22 9.41211 22C9.55889 22 9.70421 21.9713 9.8397 21.9157C9.97519 21.86 10.0982 21.7784 10.2015 21.6756L16.1054 15.8305C17.8673 14.0926 18.8571 11.7356 18.8571 9.27798C18.8571 6.82032 17.8673 4.46333 16.1054 2.72549ZM14.5155 14.2623L9.43435 19.2959L4.3532 14.2623C3.34936 13.2712 2.66594 12.0089 2.38934 10.6349C2.11273 9.2608 2.25535 7.8367 2.79917 6.54258C3.343 5.24846 4.2636 4.14241 5.44462 3.36426C6.62564 2.58611 8.01405 2.17078 9.43435 2.17078C10.8546 2.17078 12.243 2.58611 13.4241 3.36426C14.6051 4.14241 15.5257 5.24846 16.0695 6.54258C16.6133 7.8367 16.756 9.2608 16.4794 10.6349C16.2027 12.0089 15.5193 13.2712 14.5155 14.2623Z" fill="#718096"/>
</svg>
